<?xml version="1.0" encoding="UTF-8"?>
<svg id="Layer_2" data-name="Layer 2" xmlns="http://www.w3.org/2000/svg" viewBox="0 0 1091.79 612.32">
  <defs>
    <style>
      .cls-1 {
        fill: #fff;
        stroke-width: 0px;
      }
    </style>
  </defs>
  <g id="Layer_1-2" data-name="Layer 1">
    <g>
      <path class="cls-1" d="M100,274.12c-39.05,39.05-60.95,60.95-100,100v238.2l90-90v-30h106.39c35.15-35.15,54.85-54.85,90-90v-128.2H100ZM196.39,402.32h-75.51c-11.61,11.61-21.53,21.53-30.88,30.88v-69.08h106.39v38.2Z"/>
      <path class="cls-1" d="M0,100v238.2l90-90v-30h196.39v-90H120.92l-30.92,30.92v-69.12h196.39V0H100C60.95,39.05,39.05,60.95,0,100Z"/>
      <polygon class="cls-1" points="488.74 183.52 403.33 183.52 403.33 108.77 360.67 108.77 360.67 218.2 488.74 218.2 488.74 183.52"/>
      <path class="cls-1" d="M548.68,199.64h54.8l8.63,18.73h48.04l-58.7-109.43h-50.73l-58.7,109.43h48.04l8.63-18.73ZM576.12,140.61l14.98,32.32h-30.04l15.06-32.32Z"/>
      <path class="cls-1" d="M730.66,192.88c-13.35,0-24.67-2.2-29.56-10.67h-44.7c4.07,33.95,35.91,38.59,74.26,38.67,38.43,0,74.26-7.41,74.26-38.67.08-27.44-42.83-29.56-73.36-31.1-17.18-.81-30.45-1.47-30.45-6.27,0-8.71,16.28-10.67,29.56-10.67s24.67,2.04,29.56,10.67h44.7c-4.07-34.2-35.91-38.51-74.26-38.76-38.43,0-74.26,7.49-74.26,38.76-.08,27.36,42.83,29.47,73.36,31.02,17.18.81,30.45,1.55,30.45,6.35,0,8.47-16.28,10.67-29.56,10.67Z"/>
      <polygon class="cls-1" points="858.99 180.83 923.07 180.83 923.07 218.2 965.82 218.2 965.82 108.77 923.07 108.77 923.07 146.15 858.99 146.15 858.99 108.77 816.33 108.77 816.33 218.2 858.99 218.2 858.99 180.83"/>
      <path class="cls-1" d="M435.41,271.36c-45.02-.88-79.01,16.39-74.74,61.39-.16,41.36,33.54,53.33,74.74,53.41,41.12-.08,74.83-12.05,74.67-53.41,4.13-44.89-29.68-62.36-74.67-61.39ZM467.41,330.06c.25,17.91-14.57,21.17-32,21.41-18.8.12-33.79-4.87-32.08-24.1-.24-17.83,14.58-21.09,32.08-21.33,18.73-.12,33.72,4.86,32,24.02Z"/>
      <path class="cls-1" d="M669.51,315.49c.32-22.64-18.81-41.61-41.36-41.37h-105.44v109.43h42.66v-26.7h38.11l20.6,26.7h45.43l-23.86-30.69c13.48-6.28,23.61-20.04,23.86-37.37ZM617.4,324.77h-52.03v-18.65h52.03c5.21,0,9.36,4.15,9.36,9.37,0,4.11-3.35,9.28-9.36,9.28Z"/>
      <polygon class="cls-1" points="820.64 274.2 676.52 274.2 676.52 308.89 727.25 308.89 820.64 308.89 820.64 274.2"/>
      <polygon class="cls-1" points="727.25 383.63 769.91 383.63 769.91 351.56 727.25 308.89 727.25 383.63"/>
      <path class="cls-1" d="M851.01,274.2l-58.7,109.43h48.04l8.63-18.72h54.79l8.63,18.72h48.04l-58.7-109.43h-50.73ZM861.35,338.2l15.07-32.32,14.98,32.32h-30.05Z"/>
      <polygon class="cls-1" points="1006.38 348.79 1006.38 274.04 963.71 274.04 963.71 383.47 1091.79 383.47 1091.79 348.79 1006.38 348.79"/>
    </g>
  </g>
</svg>
